<?xml version="1.0" encoding="UTF-8" standalone="no"?>
<!DOCTYPE svg PUBLIC "-//W3C//DTD SVG 1.1//EN"
 "http://www.w3.org/Graphics/SVG/1.1/DTD/svg11.dtd">
<!-- Generated by graphviz version 2.47.0 (20210316.0004)
 -->
<!-- Title: dependencies Pages: 1 -->
<svg width="504pt" height="284pt"
 viewBox="0.00 0.00 504.00 284.00" xmlns="http://www.w3.org/2000/svg" xmlns:xlink="http://www.w3.org/1999/xlink">
<g id="graph0" class="graph" transform="scale(1 1) rotate(0) translate(4 280)">
<title>dependencies</title>
<polygon fill="white" stroke="transparent" points="-4,4 -4,-280 500,-280 500,4 -4,4"/>
<text text-anchor="start" x="227.01" y="-42.4" font-family="Times-12" font-weight="bold" font-size="14.00">Legend</text>
<polygon fill="#ffffb3" stroke="transparent" points="14,-10 14,-30 34,-30 34,-10 14,-10"/>
<text text-anchor="start" x="37.63" y="-15.4" font-family="Times-12" font-size="14.00"> &#160;Declarations</text>
<polygon fill="#8dd3c7" stroke="transparent" points="127,-10 127,-30 147,-30 147,-10 127,-10"/>
<text text-anchor="start" x="150.73" y="-15.4" font-family="Times-12" font-size="14.00"> &#160;Module</text>
<polygon fill="#80b1d3" stroke="transparent" points="213,-10 213,-30 233,-30 233,-10 213,-10"/>
<text text-anchor="start" x="236.78" y="-15.4" font-family="Times-12" font-size="14.00"> &#160;Bootstrap</text>
<polygon fill="#fdb462" stroke="transparent" points="310,-10 310,-30 330,-30 330,-10 310,-10"/>
<text text-anchor="start" x="333.67" y="-15.4" font-family="Times-12" font-size="14.00"> &#160;Providers</text>
<polygon fill="#fb8072" stroke="transparent" points="406,-10 406,-30 426,-30 426,-10 406,-10"/>
<text text-anchor="start" x="429.73" y="-15.4" font-family="Times-12" font-size="14.00"> &#160;Exports</text>
<g id="clust1" class="cluster">
<title>cluster_CoreModule</title>
<polygon fill="none" stroke="black" stroke-dasharray="1,5" points="36.5,-70 36.5,-268 459.5,-268 459.5,-70 36.5,-70"/>
</g>
<g id="clust7" class="cluster">
<title>cluster_CoreModule_exports</title>
<polygon fill="none" stroke="black" points="44.5,-208 44.5,-260 451.5,-260 451.5,-208 44.5,-208"/>
</g>
<g id="clust2" class="cluster">
<title>cluster_CoreModule_declarations</title>
<polygon fill="none" stroke="black" points="50.5,-78 50.5,-130 446.5,-130 446.5,-78 50.5,-78"/>
</g>
<!-- FooterComponent -->
<g id="node1" class="node">
<title>FooterComponent</title>
<polygon fill="#ffffb3" stroke="black" points="438.38,-122 320.62,-122 320.62,-86 438.38,-86 438.38,-122"/>
<text text-anchor="middle" x="379.5" y="-99.8" font-family="Times,serif" font-size="14.00">FooterComponent</text>
</g>
<!-- CoreModule -->
<g id="node4" class="node">
<title>CoreModule</title>
<polygon fill="#8dd3c7" stroke="black" points="284.76,-187 281.76,-191 260.76,-191 257.76,-187 198.24,-187 198.24,-151 284.76,-151 284.76,-187"/>
<text text-anchor="middle" x="241.5" y="-164.8" font-family="Times,serif" font-size="14.00">CoreModule</text>
</g>
<!-- FooterComponent&#45;&gt;CoreModule -->
<g id="edge1" class="edge">
<title>FooterComponent&#45;&gt;CoreModule</title>
<path fill="none" stroke="black" d="M399.56,-122.02C399.56,-139.37 399.56,-163 399.56,-163 399.56,-163 295.11,-163 295.11,-163"/>
<polygon fill="black" stroke="black" points="295.11,-159.5 285.11,-163 295.11,-166.5 295.11,-159.5"/>
</g>
<!-- HeaderComponent -->
<g id="node2" class="node">
<title>HeaderComponent</title>
<polygon fill="#ffffb3" stroke="black" points="302.24,-122 180.76,-122 180.76,-86 302.24,-86 302.24,-122"/>
<text text-anchor="middle" x="241.5" y="-99.8" font-family="Times,serif" font-size="14.00">HeaderComponent</text>
</g>
<!-- HeaderComponent&#45;&gt;CoreModule -->
<g id="edge2" class="edge">
<title>HeaderComponent&#45;&gt;CoreModule</title>
<path fill="none" stroke="black" d="M241.5,-122.11C241.5,-122.11 241.5,-140.99 241.5,-140.99"/>
<polygon fill="black" stroke="black" points="238,-140.99 241.5,-150.99 245,-140.99 238,-140.99"/>
</g>
<!-- NavComponent -->
<g id="node3" class="node">
<title>NavComponent</title>
<polygon fill="#ffffb3" stroke="black" points="162.65,-122 58.35,-122 58.35,-86 162.65,-86 162.65,-122"/>
<text text-anchor="middle" x="110.5" y="-99.8" font-family="Times,serif" font-size="14.00">NavComponent</text>
</g>
<!-- NavComponent&#45;&gt;CoreModule -->
<g id="edge3" class="edge">
<title>NavComponent&#45;&gt;CoreModule</title>
<path fill="none" stroke="black" d="M126.44,-122.02C126.44,-139.37 126.44,-163 126.44,-163 126.44,-163 188,-163 188,-163"/>
<polygon fill="black" stroke="black" points="188,-166.5 198,-163 188,-159.5 188,-166.5"/>
</g>
<!-- FooterComponent  -->
<g id="node5" class="node">
<title>FooterComponent </title>
<polygon fill="#fb8072" stroke="black" points="443.38,-252 321.62,-252 321.62,-216 443.38,-216 443.38,-252"/>
<text text-anchor="middle" x="382.5" y="-229.8" font-family="Times,serif" font-size="14.00">FooterComponent </text>
</g>
<!-- CoreModule&#45;&gt;FooterComponent  -->
<g id="edge4" class="edge">
<title>CoreModule&#45;&gt;FooterComponent </title>
<path fill="none" stroke="black" stroke-dasharray="5,2" d="M284.87,-175C318.94,-175 360.69,-175 360.69,-175 360.69,-175 360.69,-205.98 360.69,-205.98"/>
<polygon fill="black" stroke="black" points="357.19,-205.98 360.69,-215.98 364.19,-205.98 357.19,-205.98"/>
</g>
<!-- HeaderComponent  -->
<g id="node6" class="node">
<title>HeaderComponent </title>
<polygon fill="#fb8072" stroke="black" points="304.24,-252 178.76,-252 178.76,-216 304.24,-216 304.24,-252"/>
<text text-anchor="middle" x="241.5" y="-229.8" font-family="Times,serif" font-size="14.00">HeaderComponent </text>
</g>
<!-- CoreModule&#45;&gt;HeaderComponent  -->
<g id="edge5" class="edge">
<title>CoreModule&#45;&gt;HeaderComponent </title>
<path fill="none" stroke="black" stroke-dasharray="5,2" d="M241.5,-187.11C241.5,-187.11 241.5,-205.99 241.5,-205.99"/>
<polygon fill="black" stroke="black" points="238,-205.99 241.5,-215.99 245,-205.99 238,-205.99"/>
</g>
<!-- NavComponent  -->
<g id="node7" class="node">
<title>NavComponent </title>
<polygon fill="#fb8072" stroke="black" points="160.65,-252 52.35,-252 52.35,-216 160.65,-216 160.65,-252"/>
<text text-anchor="middle" x="106.5" y="-229.8" font-family="Times,serif" font-size="14.00">NavComponent </text>
</g>
<!-- CoreModule&#45;&gt;NavComponent  -->
<g id="edge6" class="edge">
<title>CoreModule&#45;&gt;NavComponent </title>
<path fill="none" stroke="black" stroke-dasharray="5,2" d="M197.95,-175C153.91,-175 92.31,-175 92.31,-175 92.31,-175 92.31,-205.98 92.31,-205.98"/>
<polygon fill="black" stroke="black" points="88.81,-205.98 92.31,-215.98 95.81,-205.98 88.81,-205.98"/>
</g>
</g>
</svg>
