<?xml version="1.0" encoding="UTF-8" standalone="no"?>
<!DOCTYPE svg PUBLIC "-//W3C//DTD SVG 1.1//EN"
 "http://www.w3.org/Graphics/SVG/1.1/DTD/svg11.dtd">
<!-- Generated by graphviz version 2.47.0 (20210316.0004)
 -->
<!-- Title: dependencies Pages: 1 -->
<svg width="563pt" height="284pt"
 viewBox="0.00 0.00 563.00 284.00" xmlns="http://www.w3.org/2000/svg" xmlns:xlink="http://www.w3.org/1999/xlink">
<g id="graph0" class="graph" transform="scale(1 1) rotate(0) translate(4 280)">
<title>dependencies</title>
<polygon fill="white" stroke="transparent" points="-4,4 -4,-280 559,-280 559,4 -4,4"/>
<text text-anchor="start" x="256.51" y="-42.4" font-family="Times-12" font-weight="bold" font-size="14.00">Legend</text>
<polygon fill="#ffffb3" stroke="transparent" points="43.5,-10 43.5,-30 63.5,-30 63.5,-10 43.5,-10"/>
<text text-anchor="start" x="67.13" y="-15.4" font-family="Times-12" font-size="14.00"> &#160;Declarations</text>
<polygon fill="#8dd3c7" stroke="transparent" points="156.5,-10 156.5,-30 176.5,-30 176.5,-10 156.5,-10"/>
<text text-anchor="start" x="180.23" y="-15.4" font-family="Times-12" font-size="14.00"> &#160;Module</text>
<polygon fill="#80b1d3" stroke="transparent" points="242.5,-10 242.5,-30 262.5,-30 262.5,-10 242.5,-10"/>
<text text-anchor="start" x="266.28" y="-15.4" font-family="Times-12" font-size="14.00"> &#160;Bootstrap</text>
<polygon fill="#fdb462" stroke="transparent" points="339.5,-10 339.5,-30 359.5,-30 359.5,-10 339.5,-10"/>
<text text-anchor="start" x="363.17" y="-15.4" font-family="Times-12" font-size="14.00"> &#160;Providers</text>
<polygon fill="#fb8072" stroke="transparent" points="435.5,-10 435.5,-30 455.5,-30 455.5,-10 435.5,-10"/>
<text text-anchor="start" x="459.23" y="-15.4" font-family="Times-12" font-size="14.00"> &#160;Exports</text>
<g id="clust1" class="cluster">
<title>cluster_SharedModule</title>
<polygon fill="none" stroke="black" stroke-dasharray="1,5" points="8,-70 8,-268 547,-268 547,-70 8,-70"/>
</g>
<g id="clust2" class="cluster">
<title>cluster_SharedModule_declarations</title>
<polygon fill="none" stroke="black" points="24,-78 24,-130 534,-130 534,-78 24,-78"/>
</g>
<g id="clust8" class="cluster">
<title>cluster_SharedModule_exports</title>
<polygon fill="none" stroke="black" points="16,-208 16,-260 539,-260 539,-208 16,-208"/>
</g>
<!-- BtnComponent -->
<g id="node1" class="node">
<title>BtnComponent</title>
<polygon fill="#ffffb3" stroke="black" points="525.56,-122 424.44,-122 424.44,-86 525.56,-86 525.56,-122"/>
<text text-anchor="middle" x="475" y="-99.8" font-family="Times,serif" font-size="14.00">BtnComponent</text>
</g>
<!-- SharedModule -->
<g id="node5" class="node">
<title>SharedModule</title>
<polygon fill="#8dd3c7" stroke="black" points="236.42,-187 233.42,-191 212.42,-191 209.42,-187 137.58,-187 137.58,-151 236.42,-151 236.42,-187"/>
<text text-anchor="middle" x="187" y="-164.8" font-family="Times,serif" font-size="14.00">SharedModule</text>
</g>
<!-- BtnComponent&#45;&gt;SharedModule -->
<g id="edge1" class="edge">
<title>BtnComponent&#45;&gt;SharedModule</title>
<path fill="none" stroke="black" d="M492.34,-122.27C492.34,-140.56 492.34,-166 492.34,-166 492.34,-166 246.4,-166 246.4,-166"/>
<polygon fill="black" stroke="black" points="246.4,-162.5 236.4,-166 246.4,-169.5 246.4,-162.5"/>
</g>
<!-- IconCloseComponent -->
<g id="node2" class="node">
<title>IconCloseComponent</title>
<polygon fill="#ffffb3" stroke="black" points="406.09,-122 267.91,-122 267.91,-86 406.09,-86 406.09,-122"/>
<text text-anchor="middle" x="337" y="-99.8" font-family="Times,serif" font-size="14.00">IconCloseComponent</text>
</g>
<!-- IconCloseComponent&#45;&gt;SharedModule -->
<g id="edge2" class="edge">
<title>IconCloseComponent&#45;&gt;SharedModule</title>
<path fill="none" stroke="black" d="M360.02,-122.01C360.02,-138.05 360.02,-159 360.02,-159 360.02,-159 246.58,-159 246.58,-159"/>
<polygon fill="black" stroke="black" points="246.58,-155.5 236.58,-159 246.58,-162.5 246.58,-155.5"/>
</g>
<!-- IconNavComponent -->
<g id="node3" class="node">
<title>IconNavComponent</title>
<polygon fill="#ffffb3" stroke="black" points="249.53,-122 120.47,-122 120.47,-86 249.53,-86 249.53,-122"/>
<text text-anchor="middle" x="185" y="-99.8" font-family="Times,serif" font-size="14.00">IconNavComponent</text>
</g>
<!-- IconNavComponent&#45;&gt;SharedModule -->
<g id="edge3" class="edge">
<title>IconNavComponent&#45;&gt;SharedModule</title>
<path fill="none" stroke="black" d="M187,-122.11C187,-122.11 187,-140.99 187,-140.99"/>
<polygon fill="black" stroke="black" points="183.5,-140.99 187,-150.99 190.5,-140.99 183.5,-140.99"/>
</g>
<!-- TotalPipe -->
<g id="node4" class="node">
<title>TotalPipe</title>
<polygon fill="#ffffb3" stroke="black" points="102.44,-122 31.56,-122 31.56,-86 102.44,-86 102.44,-122"/>
<text text-anchor="middle" x="67" y="-99.8" font-family="Times,serif" font-size="14.00">TotalPipe</text>
</g>
<!-- TotalPipe&#45;&gt;SharedModule -->
<g id="edge4" class="edge">
<title>TotalPipe&#45;&gt;SharedModule</title>
<path fill="none" stroke="black" d="M75.91,-122.02C75.91,-139.37 75.91,-163 75.91,-163 75.91,-163 127.63,-163 127.63,-163"/>
<polygon fill="black" stroke="black" points="127.63,-166.5 137.63,-163 127.63,-159.5 127.63,-166.5"/>
</g>
<!-- BtnComponent  -->
<g id="node6" class="node">
<title>BtnComponent </title>
<polygon fill="#fb8072" stroke="black" points="530.56,-252 425.44,-252 425.44,-216 530.56,-216 530.56,-252"/>
<text text-anchor="middle" x="478" y="-229.8" font-family="Times,serif" font-size="14.00">BtnComponent </text>
</g>
<!-- SharedModule&#45;&gt;BtnComponent  -->
<g id="edge5" class="edge">
<title>SharedModule&#45;&gt;BtnComponent </title>
<path fill="none" stroke="black" stroke-dasharray="5,2" d="M236.24,-173C314.6,-173 458.91,-173 458.91,-173 458.91,-173 458.91,-205.7 458.91,-205.7"/>
<polygon fill="black" stroke="black" points="455.41,-205.7 458.91,-215.7 462.41,-205.7 455.41,-205.7"/>
</g>
<!-- IconCloseComponent  -->
<g id="node7" class="node">
<title>IconCloseComponent </title>
<polygon fill="#fb8072" stroke="black" points="407.59,-252 266.41,-252 266.41,-216 407.59,-216 407.59,-252"/>
<text text-anchor="middle" x="337" y="-229.8" font-family="Times,serif" font-size="14.00">IconCloseComponent </text>
</g>
<!-- SharedModule&#45;&gt;IconCloseComponent  -->
<g id="edge6" class="edge">
<title>SharedModule&#45;&gt;IconCloseComponent </title>
<path fill="none" stroke="black" stroke-dasharray="5,2" d="M236.46,-180C272.11,-180 313.98,-180 313.98,-180 313.98,-180 313.98,-205.72 313.98,-205.72"/>
<polygon fill="black" stroke="black" points="310.48,-205.72 313.98,-215.72 317.48,-205.72 310.48,-205.72"/>
</g>
<!-- IconNavComponent  -->
<g id="node8" class="node">
<title>IconNavComponent </title>
<polygon fill="#fb8072" stroke="black" points="248.53,-252 115.47,-252 115.47,-216 248.53,-216 248.53,-252"/>
<text text-anchor="middle" x="182" y="-229.8" font-family="Times,serif" font-size="14.00">IconNavComponent </text>
</g>
<!-- SharedModule&#45;&gt;IconNavComponent  -->
<g id="edge7" class="edge">
<title>SharedModule&#45;&gt;IconNavComponent </title>
<path fill="none" stroke="black" stroke-dasharray="5,2" d="M187,-187.11C187,-187.11 187,-205.99 187,-205.99"/>
<polygon fill="black" stroke="black" points="183.5,-205.99 187,-215.99 190.5,-205.99 183.5,-205.99"/>
</g>
<!-- TotalPipe  -->
<g id="node9" class="node">
<title>TotalPipe </title>
<polygon fill="#fb8072" stroke="black" points="97.94,-252 24.06,-252 24.06,-216 97.94,-216 97.94,-252"/>
<text text-anchor="middle" x="61" y="-229.8" font-family="Times,serif" font-size="14.00">TotalPipe </text>
</g>
<!-- SharedModule&#45;&gt;TotalPipe  -->
<g id="edge8" class="edge">
<title>SharedModule&#45;&gt;TotalPipe </title>
<path fill="none" stroke="black" stroke-dasharray="5,2" d="M137.42,-175C99.56,-175 53.84,-175 53.84,-175 53.84,-175 53.84,-205.98 53.84,-205.98"/>
<polygon fill="black" stroke="black" points="50.34,-205.98 53.84,-215.98 57.34,-205.98 50.34,-205.98"/>
</g>
</g>
</svg>
