<?xml version="1.0" encoding="UTF-8" standalone="no"?>
<!DOCTYPE svg PUBLIC "-//W3C//DTD SVG 1.1//EN"
 "http://www.w3.org/Graphics/SVG/1.1/DTD/svg11.dtd">
<!-- Generated by graphviz version 2.47.0 (20210316.0004)
 -->
<!-- Title: dependencies Pages: 1 -->
<svg width="504pt" height="211pt"
 viewBox="0.00 0.00 504.00 211.00" xmlns="http://www.w3.org/2000/svg" xmlns:xlink="http://www.w3.org/1999/xlink">
<g id="graph0" class="graph" transform="scale(1 1) rotate(0) translate(4 207)">
<title>dependencies</title>
<polygon fill="white" stroke="transparent" points="-4,4 -4,-207 500,-207 500,4 -4,4"/>
<text text-anchor="start" x="227.01" y="-42.4" font-family="Times-12" font-weight="bold" font-size="14.00">Legend</text>
<polygon fill="#ffffb3" stroke="transparent" points="14,-10 14,-30 34,-30 34,-10 14,-10"/>
<text text-anchor="start" x="37.63" y="-15.4" font-family="Times-12" font-size="14.00"> &#160;Declarations</text>
<polygon fill="#8dd3c7" stroke="transparent" points="127,-10 127,-30 147,-30 147,-10 127,-10"/>
<text text-anchor="start" x="150.73" y="-15.4" font-family="Times-12" font-size="14.00"> &#160;Module</text>
<polygon fill="#80b1d3" stroke="transparent" points="213,-10 213,-30 233,-30 233,-10 213,-10"/>
<text text-anchor="start" x="236.78" y="-15.4" font-family="Times-12" font-size="14.00"> &#160;Bootstrap</text>
<polygon fill="#fdb462" stroke="transparent" points="310,-10 310,-30 330,-30 330,-10 310,-10"/>
<text text-anchor="start" x="333.67" y="-15.4" font-family="Times-12" font-size="14.00"> &#160;Providers</text>
<polygon fill="#fb8072" stroke="transparent" points="406,-10 406,-30 426,-30 426,-10 406,-10"/>
<text text-anchor="start" x="429.73" y="-15.4" font-family="Times-12" font-size="14.00"> &#160;Exports</text>
<g id="clust1" class="cluster">
<title>cluster_PageNotFoundModule</title>
<polygon fill="none" stroke="black" stroke-dasharray="1,5" points="43,-70 43,-195 453,-195 453,-70 43,-70"/>
</g>
<g id="clust4" class="cluster">
<title>cluster_PageNotFoundModule_imports</title>
<polygon fill="none" stroke="black" points="241,-78 241,-130 445,-130 445,-78 241,-78"/>
</g>
<g id="clust2" class="cluster">
<title>cluster_PageNotFoundModule_declarations</title>
<polygon fill="none" stroke="black" points="51,-78 51,-130 233,-130 233,-78 51,-78"/>
</g>
<!-- PageNotFoundComponent -->
<g id="node1" class="node">
<title>PageNotFoundComponent</title>
<polygon fill="#ffffb3" stroke="black" points="224.82,-122 59.18,-122 59.18,-86 224.82,-86 224.82,-122"/>
<text text-anchor="middle" x="142" y="-99.8" font-family="Times,serif" font-size="14.00">PageNotFoundComponent</text>
</g>
<!-- PageNotFoundModule -->
<g id="node2" class="node">
<title>PageNotFoundModule</title>
<polygon fill="#8dd3c7" stroke="black" points="313.54,-187 310.54,-191 289.54,-191 286.54,-187 170.46,-187 170.46,-151 313.54,-151 313.54,-187"/>
<text text-anchor="middle" x="242" y="-164.8" font-family="Times,serif" font-size="14.00">PageNotFoundModule</text>
</g>
<!-- PageNotFoundComponent&#45;&gt;PageNotFoundModule -->
<g id="edge1" class="edge">
<title>PageNotFoundComponent&#45;&gt;PageNotFoundModule</title>
<path fill="none" stroke="black" d="M197.45,-122.11C197.45,-122.11 197.45,-140.99 197.45,-140.99"/>
<polygon fill="black" stroke="black" points="193.95,-140.99 197.45,-150.99 200.95,-140.99 193.95,-140.99"/>
</g>
<!-- PageNotFoundRoutingModule -->
<g id="node3" class="node">
<title>PageNotFoundRoutingModule</title>
<polygon fill="#8dd3c7" stroke="black" points="437.16,-122 434.16,-126 413.16,-126 410.16,-122 248.84,-122 248.84,-86 437.16,-86 437.16,-122"/>
<text text-anchor="middle" x="343" y="-99.8" font-family="Times,serif" font-size="14.00">PageNotFoundRoutingModule</text>
</g>
<!-- PageNotFoundRoutingModule&#45;&gt;PageNotFoundModule -->
<g id="edge2" class="edge">
<title>PageNotFoundRoutingModule&#45;&gt;PageNotFoundModule</title>
<path fill="none" stroke="black" d="M281.22,-122.11C281.22,-122.11 281.22,-140.99 281.22,-140.99"/>
<polygon fill="black" stroke="black" points="277.72,-140.99 281.22,-150.99 284.72,-140.99 277.72,-140.99"/>
</g>
</g>
</svg>
