<?xml version="1.0" encoding="UTF-8" standalone="no"?>
<!DOCTYPE svg PUBLIC "-//W3C//DTD SVG 1.1//EN"
 "http://www.w3.org/Graphics/SVG/1.1/DTD/svg11.dtd">
<!-- Generated by graphviz version 2.47.0 (20210316.0004)
 -->
<!-- Title: dependencies Pages: 1 -->
<svg width="3940pt" height="360pt"
 viewBox="0.00 0.00 3940.00 360.00" xmlns="http://www.w3.org/2000/svg" xmlns:xlink="http://www.w3.org/1999/xlink">
<g id="graph0" class="graph" transform="scale(1 1) rotate(0) translate(4 356)">
<title>dependencies</title>
<polygon fill="white" stroke="transparent" points="-4,4 -4,-356 3936,-356 3936,4 -4,4"/>
<text text-anchor="start" x="1945.01" y="-42.4" font-family="Times-12" font-weight="bold" font-size="14.00">Legend</text>
<polygon fill="#ffffb3" stroke="transparent" points="1732,-10 1732,-30 1752,-30 1752,-10 1732,-10"/>
<text text-anchor="start" x="1755.63" y="-15.4" font-family="Times-12" font-size="14.00"> &#160;Declarations</text>
<polygon fill="#8dd3c7" stroke="transparent" points="1845,-10 1845,-30 1865,-30 1865,-10 1845,-10"/>
<text text-anchor="start" x="1868.73" y="-15.4" font-family="Times-12" font-size="14.00"> &#160;Module</text>
<polygon fill="#80b1d3" stroke="transparent" points="1931,-10 1931,-30 1951,-30 1951,-10 1931,-10"/>
<text text-anchor="start" x="1954.78" y="-15.4" font-family="Times-12" font-size="14.00"> &#160;Bootstrap</text>
<polygon fill="#fdb462" stroke="transparent" points="2028,-10 2028,-30 2048,-30 2048,-10 2028,-10"/>
<text text-anchor="start" x="2051.67" y="-15.4" font-family="Times-12" font-size="14.00"> &#160;Providers</text>
<polygon fill="#fb8072" stroke="transparent" points="2124,-10 2124,-30 2144,-30 2144,-10 2124,-10"/>
<text text-anchor="start" x="2147.73" y="-15.4" font-family="Times-12" font-size="14.00"> &#160;Exports</text>
<g id="clust1" class="cluster">
<title>cluster_AppModule</title>
<polygon fill="none" stroke="black" stroke-dasharray="1,5" points="910,-70 910,-344 1422,-344 1422,-70 910,-70"/>
</g>
<g id="clust2" class="cluster">
<title>cluster_AppModule_declarations</title>
<polygon fill="none" stroke="black" points="1292,-154 1292,-206 1414,-206 1414,-154 1292,-154"/>
</g>
<g id="clust4" class="cluster">
<title>cluster_AppModule_imports</title>
<polygon fill="none" stroke="black" points="918,-78 918,-206 1284,-206 1284,-78 918,-78"/>
</g>
<g id="clust6" class="cluster">
<title>cluster_AppModule_bootstrap</title>
<polygon fill="none" stroke="black" points="1054,-284 1054,-336 1178,-336 1178,-284 1054,-284"/>
</g>
<g id="clust14" class="cluster">
<title>cluster_ClientsModule</title>
<polygon fill="none" stroke="black" stroke-dasharray="1,5" points="3330,-70 3330,-206 3506,-206 3506,-70 3330,-70"/>
</g>
<g id="clust16" class="cluster">
<title>cluster_ClientsModule_imports</title>
<polygon fill="none" stroke="black" points="3338,-78 3338,-130 3498,-130 3498,-78 3338,-78"/>
</g>
<g id="clust26" class="cluster">
<title>cluster_CoreModule</title>
<polygon fill="none" stroke="black" stroke-dasharray="1,5" points="1430,-146 1430,-214 2257,-214 2257,-146 1430,-146"/>
</g>
<g id="clust27" class="cluster">
<title>cluster_CoreModule_declarations</title>
<polygon fill="none" stroke="black" points="1853,-154 1853,-206 2249,-206 2249,-154 1853,-154"/>
</g>
<g id="clust32" class="cluster">
<title>cluster_CoreModule_exports</title>
<polygon fill="none" stroke="black" points="1438,-154 1438,-206 1845,-206 1845,-154 1438,-154"/>
</g>
<g id="clust35" class="cluster">
<title>cluster_OrdersModule</title>
<polygon fill="none" stroke="black" stroke-dasharray="1,5" points="8,-70 8,-138 902,-138 902,-70 8,-70"/>
</g>
<g id="clust36" class="cluster">
<title>cluster_OrdersModule_declarations</title>
<polygon fill="none" stroke="black" points="182,-78 182,-130 894,-130 894,-78 182,-78"/>
</g>
<g id="clust41" class="cluster">
<title>cluster_OrdersModule_imports</title>
<polygon fill="none" stroke="black" points="16,-78 16,-130 174,-130 174,-78 16,-78"/>
</g>
<g id="clust51" class="cluster">
<title>cluster_PageNotFoundModule</title>
<polygon fill="none" stroke="black" stroke-dasharray="1,5" points="3514,-70 3514,-206 3924,-206 3924,-70 3514,-70"/>
</g>
<g id="clust52" class="cluster">
<title>cluster_PageNotFoundModule_declarations</title>
<polygon fill="none" stroke="black" points="3734,-78 3734,-130 3916,-130 3916,-78 3734,-78"/>
</g>
<g id="clust54" class="cluster">
<title>cluster_PageNotFoundModule_imports</title>
<polygon fill="none" stroke="black" points="3522,-78 3522,-130 3726,-130 3726,-78 3522,-78"/>
</g>
<g id="clust64" class="cluster">
<title>cluster_SharedModule</title>
<polygon fill="none" stroke="black" stroke-dasharray="1,5" points="2265,-146 2265,-214 3322,-214 3322,-146 2265,-146"/>
</g>
<g id="clust65" class="cluster">
<title>cluster_SharedModule_declarations</title>
<polygon fill="none" stroke="black" points="2804,-154 2804,-206 3314,-206 3314,-154 2804,-154"/>
</g>
<g id="clust71" class="cluster">
<title>cluster_SharedModule_exports</title>
<polygon fill="none" stroke="black" points="2273,-154 2273,-206 2796,-206 2796,-154 2273,-154"/>
</g>
<!-- AppComponent -->
<g id="node1" class="node">
<title>AppComponent</title>
<polygon fill="#ffffb3" stroke="black" points="1405.94,-198 1300.06,-198 1300.06,-162 1405.94,-162 1405.94,-198"/>
<text text-anchor="middle" x="1353" y="-175.8" font-family="Times,serif" font-size="14.00">AppComponent</text>
</g>
<!-- AppModule -->
<g id="node2" class="node">
<title>AppModule</title>
<polygon fill="#8dd3c7" stroke="black" points="1157.66,-263 1154.66,-267 1133.66,-267 1130.66,-263 1074.34,-263 1074.34,-227 1157.66,-227 1157.66,-263"/>
<text text-anchor="middle" x="1116" y="-240.8" font-family="Times,serif" font-size="14.00">AppModule</text>
</g>
<!-- AppComponent&#45;&gt;AppModule -->
<g id="edge1" class="edge">
<title>AppComponent&#45;&gt;AppModule</title>
<path fill="none" stroke="black" d="M1300.05,-180C1239.75,-180 1149.46,-180 1149.46,-180 1149.46,-180 1149.46,-216.89 1149.46,-216.89"/>
<polygon fill="black" stroke="black" points="1145.96,-216.89 1149.46,-226.89 1152.96,-216.89 1145.96,-216.89"/>
</g>
<!-- AppComponent  -->
<g id="node7" class="node">
<title>AppComponent </title>
<polygon fill="#80b1d3" stroke="black" points="1170.44,-328 1061.56,-328 1061.56,-292 1170.44,-292 1170.44,-328"/>
<text text-anchor="middle" x="1116" y="-305.8" font-family="Times,serif" font-size="14.00">AppComponent </text>
</g>
<!-- AppModule&#45;&gt;AppComponent  -->
<g id="edge6" class="edge">
<title>AppModule&#45;&gt;AppComponent </title>
<path fill="none" stroke="black" stroke-dasharray="1,5" d="M1116,-263.11C1116,-263.11 1116,-281.99 1116,-281.99"/>
<polygon fill="black" stroke="black" points="1112.5,-281.99 1116,-291.99 1119.5,-281.99 1112.5,-281.99"/>
</g>
<!-- AppRoutingModule -->
<g id="node3" class="node">
<title>AppRoutingModule</title>
<polygon fill="#8dd3c7" stroke="black" points="1054.27,-122 1051.27,-126 1030.27,-126 1027.27,-122 925.73,-122 925.73,-86 1054.27,-86 1054.27,-122"/>
<text text-anchor="middle" x="990" y="-99.8" font-family="Times,serif" font-size="14.00">AppRoutingModule</text>
</g>
<!-- AppRoutingModule&#45;&gt;AppModule -->
<g id="edge2" class="edge">
<title>AppRoutingModule&#45;&gt;AppModule</title>
<path fill="none" stroke="black" d="M1039.1,-122.14C1039.1,-160.23 1039.1,-245 1039.1,-245 1039.1,-245 1063.95,-245 1063.95,-245"/>
<polygon fill="black" stroke="black" points="1063.95,-248.5 1073.95,-245 1063.95,-241.5 1063.95,-248.5"/>
</g>
<!-- CoreModule -->
<g id="node4" class="node">
<title>CoreModule</title>
<polygon fill="#8dd3c7" stroke="black" points="1159.26,-122 1156.26,-126 1135.26,-126 1132.26,-122 1072.74,-122 1072.74,-86 1159.26,-86 1159.26,-122"/>
<text text-anchor="middle" x="1116" y="-99.8" font-family="Times,serif" font-size="14.00">CoreModule</text>
</g>
<!-- CoreModule&#45;&gt;AppModule -->
<g id="edge3" class="edge">
<title>CoreModule&#45;&gt;AppModule</title>
<path fill="none" stroke="black" d="M1141.1,-122.14C1141.1,-122.14 1141.1,-216.93 1141.1,-216.93"/>
<polygon fill="black" stroke="black" points="1137.6,-216.92 1141.1,-226.93 1144.6,-216.93 1137.6,-216.92"/>
</g>
<!-- FooterComponent  -->
<g id="node13" class="node">
<title>FooterComponent </title>
<polygon fill="#fb8072" stroke="black" points="1836.88,-198 1715.12,-198 1715.12,-162 1836.88,-162 1836.88,-198"/>
<text text-anchor="middle" x="1776" y="-175.8" font-family="Times,serif" font-size="14.00">FooterComponent </text>
</g>
<!-- CoreModule&#45;&gt;FooterComponent  -->
<g id="edge11" class="edge">
<title>CoreModule&#45;&gt;FooterComponent </title>
<path fill="none" stroke="black" stroke-dasharray="5,2" d="M1124.37,-122.1C1124.37,-133.09 1124.37,-145 1124.37,-145 1124.37,-145 1776,-145 1776,-145 1776,-145 1776,-151.68 1776,-151.68"/>
<polygon fill="black" stroke="black" points="1772.5,-151.68 1776,-161.68 1779.5,-151.68 1772.5,-151.68"/>
</g>
<!-- HeaderComponent  -->
<g id="node14" class="node">
<title>HeaderComponent </title>
<polygon fill="#fb8072" stroke="black" points="1697.74,-198 1572.26,-198 1572.26,-162 1697.74,-162 1697.74,-198"/>
<text text-anchor="middle" x="1635" y="-175.8" font-family="Times,serif" font-size="14.00">HeaderComponent </text>
</g>
<!-- CoreModule&#45;&gt;HeaderComponent  -->
<g id="edge12" class="edge">
<title>CoreModule&#45;&gt;HeaderComponent </title>
<path fill="none" stroke="black" stroke-dasharray="5,2" d="M1116,-122.04C1116,-135.29 1116,-151 1116,-151 1116,-151 1635,-151 1635,-151 1635,-151 1635,-152.08 1635,-152.08"/>
<polygon fill="black" stroke="black" points="1631.5,-151.8 1635,-161.8 1638.5,-151.8 1631.5,-151.8"/>
</g>
<!-- NavComponent  -->
<g id="node15" class="node">
<title>NavComponent </title>
<polygon fill="#fb8072" stroke="black" points="1554.15,-198 1445.85,-198 1445.85,-162 1554.15,-162 1554.15,-198"/>
<text text-anchor="middle" x="1500" y="-175.8" font-family="Times,serif" font-size="14.00">NavComponent </text>
</g>
<!-- CoreModule&#45;&gt;NavComponent  -->
<g id="edge13" class="edge">
<title>CoreModule&#45;&gt;NavComponent </title>
<path fill="none" stroke="black" stroke-dasharray="5,2" d="M1107.63,-122.24C1107.63,-137.57 1107.63,-157 1107.63,-157 1107.63,-157 1500,-157 1500,-157 1500,-157 1500,-157.49 1500,-157.49"/>
<polygon fill="black" stroke="black" points="1496.5,-151.88 1500,-161.88 1503.5,-151.88 1496.5,-151.88"/>
</g>
<!-- OrdersModule -->
<g id="node5" class="node">
<title>OrdersModule</title>
<polygon fill="#8dd3c7" stroke="black" points="1023.64,-198 1020.64,-202 999.64,-202 996.64,-198 926.36,-198 926.36,-162 1023.64,-162 1023.64,-198"/>
<text text-anchor="middle" x="975" y="-175.8" font-family="Times,serif" font-size="14.00">OrdersModule</text>
</g>
<!-- OrdersModule&#45;&gt;AppModule -->
<g id="edge4" class="edge">
<title>OrdersModule&#45;&gt;AppModule</title>
<path fill="none" stroke="black" d="M1024.04,-189C1070.34,-189 1132.73,-189 1132.73,-189 1132.73,-189 1132.73,-216.97 1132.73,-216.97"/>
<polygon fill="black" stroke="black" points="1129.23,-216.97 1132.73,-226.97 1136.23,-216.97 1129.23,-216.97"/>
</g>
<!-- SharedModule -->
<g id="node6" class="node">
<title>SharedModule</title>
<polygon fill="#8dd3c7" stroke="black" points="1276.42,-122 1273.42,-126 1252.42,-126 1249.42,-122 1177.58,-122 1177.58,-86 1276.42,-86 1276.42,-122"/>
<text text-anchor="middle" x="1227" y="-99.8" font-family="Times,serif" font-size="14.00">SharedModule</text>
</g>
<!-- SharedModule&#45;&gt;AppModule -->
<g id="edge5" class="edge">
<title>SharedModule&#45;&gt;AppModule</title>
<path fill="none" stroke="black" d="M1243.4,-122.14C1243.4,-160.23 1243.4,-245 1243.4,-245 1243.4,-245 1167.72,-245 1167.72,-245"/>
<polygon fill="black" stroke="black" points="1167.72,-241.5 1157.72,-245 1167.72,-248.5 1167.72,-241.5"/>
</g>
<!-- SharedModule&#45;&gt;OrdersModule -->
<g id="edge19" class="edge">
<title>SharedModule&#45;&gt;OrdersModule</title>
<path fill="none" stroke="black" d="M1210.6,-122.31C1210.6,-142.15 1210.6,-171 1210.6,-171 1210.6,-171 1033.82,-171 1033.82,-171"/>
<polygon fill="black" stroke="black" points="1033.82,-167.5 1023.82,-171 1033.82,-174.5 1033.82,-167.5"/>
</g>
<!-- BtnComponent  -->
<g id="node28" class="node">
<title>BtnComponent </title>
<polygon fill="#fb8072" stroke="black" points="2545.56,-198 2440.44,-198 2440.44,-162 2545.56,-162 2545.56,-198"/>
<text text-anchor="middle" x="2493" y="-175.8" font-family="Times,serif" font-size="14.00">BtnComponent </text>
</g>
<!-- SharedModule&#45;&gt;BtnComponent  -->
<g id="edge26" class="edge">
<title>SharedModule&#45;&gt;BtnComponent </title>
<path fill="none" stroke="black" stroke-dasharray="5,2" d="M1276.24,-114C1509.6,-114 2493,-114 2493,-114 2493,-114 2493,-151.97 2493,-151.97"/>
<polygon fill="black" stroke="black" points="2489.5,-151.97 2493,-161.97 2496.5,-151.97 2489.5,-151.97"/>
</g>
<!-- IconCloseComponent  -->
<g id="node29" class="node">
<title>IconCloseComponent </title>
<polygon fill="#fb8072" stroke="black" points="2422.59,-198 2281.41,-198 2281.41,-162 2422.59,-162 2422.59,-198"/>
<text text-anchor="middle" x="2352" y="-175.8" font-family="Times,serif" font-size="14.00">IconCloseComponent </text>
</g>
<!-- SharedModule&#45;&gt;IconCloseComponent  -->
<g id="edge27" class="edge">
<title>SharedModule&#45;&gt;IconCloseComponent </title>
<path fill="none" stroke="black" stroke-dasharray="5,2" d="M1276.43,-118C1493.55,-118 2352,-118 2352,-118 2352,-118 2352,-151.73 2352,-151.73"/>
<polygon fill="black" stroke="black" points="2348.5,-151.73 2352,-161.73 2355.5,-151.73 2348.5,-151.73"/>
</g>
<!-- IconNavComponent  -->
<g id="node30" class="node">
<title>IconNavComponent </title>
<polygon fill="#fb8072" stroke="black" points="2787.53,-198 2654.47,-198 2654.47,-162 2787.53,-162 2787.53,-198"/>
<text text-anchor="middle" x="2721" y="-175.8" font-family="Times,serif" font-size="14.00">IconNavComponent </text>
</g>
<!-- SharedModule&#45;&gt;IconNavComponent  -->
<g id="edge28" class="edge">
<title>SharedModule&#45;&gt;IconNavComponent </title>
<path fill="none" stroke="black" stroke-dasharray="5,2" d="M1276.28,-106C1534.64,-106 2721,-106 2721,-106 2721,-106 2721,-151.71 2721,-151.71"/>
<polygon fill="black" stroke="black" points="2717.5,-151.71 2721,-161.71 2724.5,-151.71 2717.5,-151.71"/>
</g>
<!-- TotalPipe  -->
<g id="node31" class="node">
<title>TotalPipe </title>
<polygon fill="#fb8072" stroke="black" points="2636.94,-198 2563.06,-198 2563.06,-162 2636.94,-162 2636.94,-198"/>
<text text-anchor="middle" x="2600" y="-175.8" font-family="Times,serif" font-size="14.00">TotalPipe </text>
</g>
<!-- SharedModule&#45;&gt;TotalPipe  -->
<g id="edge29" class="edge">
<title>SharedModule&#45;&gt;TotalPipe </title>
<path fill="none" stroke="black" stroke-dasharray="5,2" d="M1276.27,-110C1521.64,-110 2600,-110 2600,-110 2600,-110 2600,-151.97 2600,-151.97"/>
<polygon fill="black" stroke="black" points="2596.5,-151.97 2600,-161.97 2603.5,-151.97 2596.5,-151.97"/>
</g>
<!-- ClientsRoutingModule -->
<g id="node8" class="node">
<title>ClientsRoutingModule</title>
<polygon fill="#8dd3c7" stroke="black" points="3490.34,-122 3487.34,-126 3466.34,-126 3463.34,-122 3345.66,-122 3345.66,-86 3490.34,-86 3490.34,-122"/>
<text text-anchor="middle" x="3418" y="-99.8" font-family="Times,serif" font-size="14.00">ClientsRoutingModule</text>
</g>
<!-- ClientsModule -->
<g id="node9" class="node">
<title>ClientsModule</title>
<polygon fill="#8dd3c7" stroke="black" points="3467.72,-198 3464.72,-202 3443.72,-202 3440.72,-198 3368.28,-198 3368.28,-162 3467.72,-162 3467.72,-198"/>
<text text-anchor="middle" x="3418" y="-175.8" font-family="Times,serif" font-size="14.00">ClientsModule</text>
</g>
<!-- ClientsRoutingModule&#45;&gt;ClientsModule -->
<g id="edge7" class="edge">
<title>ClientsRoutingModule&#45;&gt;ClientsModule</title>
<path fill="none" stroke="black" d="M3418,-122.01C3418,-122.01 3418,-151.85 3418,-151.85"/>
<polygon fill="black" stroke="black" points="3414.5,-151.85 3418,-161.85 3421.5,-151.85 3414.5,-151.85"/>
</g>
<!-- FooterComponent -->
<g id="node10" class="node">
<title>FooterComponent</title>
<polygon fill="#ffffb3" stroke="black" points="2240.88,-198 2123.12,-198 2123.12,-162 2240.88,-162 2240.88,-198"/>
<text text-anchor="middle" x="2182" y="-175.8" font-family="Times,serif" font-size="14.00">FooterComponent</text>
</g>
<!-- FooterComponent&#45;&gt;CoreModule -->
<g id="edge8" class="edge">
<title>FooterComponent&#45;&gt;CoreModule</title>
<path fill="none" stroke="black" d="M2182,-161.81C2182,-146.82 2182,-128 2182,-128 2182,-128 1099.27,-128 1099.27,-128 1099.27,-128 1099.27,-127.42 1099.27,-127.42"/>
<polygon fill="black" stroke="black" points="1102.77,-132.19 1099.27,-122.19 1095.77,-132.19 1102.77,-132.19"/>
</g>
<!-- HeaderComponent -->
<g id="node11" class="node">
<title>HeaderComponent</title>
<polygon fill="#ffffb3" stroke="black" points="2104.74,-198 1983.26,-198 1983.26,-162 2104.74,-162 2104.74,-198"/>
<text text-anchor="middle" x="2044" y="-175.8" font-family="Times,serif" font-size="14.00">HeaderComponent</text>
</g>
<!-- HeaderComponent&#45;&gt;CoreModule -->
<g id="edge9" class="edge">
<title>HeaderComponent&#45;&gt;CoreModule</title>
<path fill="none" stroke="black" d="M2044,-161.82C2044,-148.96 2044,-134 2044,-134 2044,-134 1090.9,-134 1090.9,-134 1090.9,-134 1090.9,-132.14 1090.9,-132.14"/>
<polygon fill="black" stroke="black" points="1094.4,-132.14 1090.9,-122.14 1087.4,-132.14 1094.4,-132.14"/>
</g>
<!-- NavComponent -->
<g id="node12" class="node">
<title>NavComponent</title>
<polygon fill="#ffffb3" stroke="black" points="1965.15,-198 1860.85,-198 1860.85,-162 1965.15,-162 1965.15,-198"/>
<text text-anchor="middle" x="1913" y="-175.8" font-family="Times,serif" font-size="14.00">NavComponent</text>
</g>
<!-- NavComponent&#45;&gt;CoreModule -->
<g id="edge10" class="edge">
<title>NavComponent&#45;&gt;CoreModule</title>
<path fill="none" stroke="black" d="M1913,-161.87C1913,-151.29 1913,-140 1913,-140 1913,-140 1082.54,-140 1082.54,-140 1082.54,-140 1082.54,-132.42 1082.54,-132.42"/>
<polygon fill="black" stroke="black" points="1086.04,-132.42 1082.54,-122.42 1079.04,-132.42 1086.04,-132.42"/>
</g>
<!-- FormOrderComponent -->
<g id="node16" class="node">
<title>FormOrderComponent</title>
<polygon fill="#ffffb3" stroke="black" points="518.31,-122 373.69,-122 373.69,-86 518.31,-86 518.31,-122"/>
<text text-anchor="middle" x="446" y="-99.8" font-family="Times,serif" font-size="14.00">FormOrderComponent</text>
</g>
<!-- FormOrderComponent&#45;&gt;OrdersModule -->
<g id="edge14" class="edge">
<title>FormOrderComponent&#45;&gt;OrdersModule</title>
<path fill="none" stroke="black" d="M446,-122.01C446,-144.49 446,-180 446,-180 446,-180 916.18,-180 916.18,-180"/>
<polygon fill="black" stroke="black" points="916.18,-183.5 926.18,-180 916.18,-176.5 916.18,-183.5"/>
</g>
<!-- PageAddOrderComponent -->
<g id="node17" class="node">
<title>PageAddOrderComponent</title>
<polygon fill="#ffffb3" stroke="black" points="355.79,-122 190.21,-122 190.21,-86 355.79,-86 355.79,-122"/>
<text text-anchor="middle" x="273" y="-99.8" font-family="Times,serif" font-size="14.00">PageAddOrderComponent</text>
</g>
<!-- PageAddOrderComponent&#45;&gt;OrdersModule -->
<g id="edge15" class="edge">
<title>PageAddOrderComponent&#45;&gt;OrdersModule</title>
<path fill="none" stroke="black" d="M273,-122.2C273,-146.36 273,-186 273,-186 273,-186 916.19,-186 916.19,-186"/>
<polygon fill="black" stroke="black" points="916.19,-189.5 926.19,-186 916.19,-182.5 916.19,-189.5"/>
</g>
<!-- PageEditOrderComponent -->
<g id="node18" class="node">
<title>PageEditOrderComponent</title>
<polygon fill="#ffffb3" stroke="black" points="886.02,-122 721.98,-122 721.98,-86 886.02,-86 886.02,-122"/>
<text text-anchor="middle" x="804" y="-99.8" font-family="Times,serif" font-size="14.00">PageEditOrderComponent</text>
</g>
<!-- PageEditOrderComponent&#45;&gt;OrdersModule -->
<g id="edge16" class="edge">
<title>PageEditOrderComponent&#45;&gt;OrdersModule</title>
<path fill="none" stroke="black" d="M804,-122.17C804,-141.09 804,-168 804,-168 804,-168 916,-168 916,-168"/>
<polygon fill="black" stroke="black" points="916,-171.5 926,-168 916,-164.5 916,-171.5"/>
</g>
<!-- PageListOrdersComponent -->
<g id="node19" class="node">
<title>PageListOrdersComponent</title>
<polygon fill="#ffffb3" stroke="black" points="704.41,-122 535.59,-122 535.59,-86 704.41,-86 704.41,-122"/>
<text text-anchor="middle" x="620" y="-99.8" font-family="Times,serif" font-size="14.00">PageListOrdersComponent</text>
</g>
<!-- PageListOrdersComponent&#45;&gt;OrdersModule -->
<g id="edge17" class="edge">
<title>PageListOrdersComponent&#45;&gt;OrdersModule</title>
<path fill="none" stroke="black" d="M620,-122.03C620,-142.77 620,-174 620,-174 620,-174 916.01,-174 916.01,-174"/>
<polygon fill="black" stroke="black" points="916.01,-177.5 926.01,-174 916.01,-170.5 916.01,-177.5"/>
</g>
<!-- OrdersRoutingModule -->
<g id="node20" class="node">
<title>OrdersRoutingModule</title>
<polygon fill="#8dd3c7" stroke="black" points="166.25,-122 163.25,-126 142.25,-126 139.25,-122 23.75,-122 23.75,-86 166.25,-86 166.25,-122"/>
<text text-anchor="middle" x="95" y="-99.8" font-family="Times,serif" font-size="14.00">OrdersRoutingModule</text>
</g>
<!-- OrdersRoutingModule&#45;&gt;OrdersModule -->
<g id="edge18" class="edge">
<title>OrdersRoutingModule&#45;&gt;OrdersModule</title>
<path fill="none" stroke="black" d="M95,-122.23C95,-148.01 95,-192 95,-192 95,-192 916.12,-192 916.12,-192"/>
<polygon fill="black" stroke="black" points="916.12,-195.5 926.12,-192 916.12,-188.5 916.12,-195.5"/>
</g>
<!-- PageNotFoundComponent -->
<g id="node21" class="node">
<title>PageNotFoundComponent</title>
<polygon fill="#ffffb3" stroke="black" points="3907.82,-122 3742.18,-122 3742.18,-86 3907.82,-86 3907.82,-122"/>
<text text-anchor="middle" x="3825" y="-99.8" font-family="Times,serif" font-size="14.00">PageNotFoundComponent</text>
</g>
<!-- PageNotFoundModule -->
<g id="node22" class="node">
<title>PageNotFoundModule</title>
<polygon fill="#8dd3c7" stroke="black" points="3795.54,-198 3792.54,-202 3771.54,-202 3768.54,-198 3652.46,-198 3652.46,-162 3795.54,-162 3795.54,-198"/>
<text text-anchor="middle" x="3724" y="-175.8" font-family="Times,serif" font-size="14.00">PageNotFoundModule</text>
</g>
<!-- PageNotFoundComponent&#45;&gt;PageNotFoundModule -->
<g id="edge20" class="edge">
<title>PageNotFoundComponent&#45;&gt;PageNotFoundModule</title>
<path fill="none" stroke="black" d="M3769.05,-122.01C3769.05,-122.01 3769.05,-151.85 3769.05,-151.85"/>
<polygon fill="black" stroke="black" points="3765.55,-151.85 3769.05,-161.85 3772.55,-151.85 3765.55,-151.85"/>
</g>
<!-- PageNotFoundRoutingModule -->
<g id="node23" class="node">
<title>PageNotFoundRoutingModule</title>
<polygon fill="#8dd3c7" stroke="black" points="3718.16,-122 3715.16,-126 3694.16,-126 3691.16,-122 3529.84,-122 3529.84,-86 3718.16,-86 3718.16,-122"/>
<text text-anchor="middle" x="3624" y="-99.8" font-family="Times,serif" font-size="14.00">PageNotFoundRoutingModule</text>
</g>
<!-- PageNotFoundRoutingModule&#45;&gt;PageNotFoundModule -->
<g id="edge21" class="edge">
<title>PageNotFoundRoutingModule&#45;&gt;PageNotFoundModule</title>
<path fill="none" stroke="black" d="M3685.28,-122.01C3685.28,-122.01 3685.28,-151.85 3685.28,-151.85"/>
<polygon fill="black" stroke="black" points="3681.78,-151.85 3685.28,-161.85 3688.78,-151.85 3681.78,-151.85"/>
</g>
<!-- BtnComponent -->
<g id="node24" class="node">
<title>BtnComponent</title>
<polygon fill="#ffffb3" stroke="black" points="3069.56,-198 2968.44,-198 2968.44,-162 3069.56,-162 3069.56,-198"/>
<text text-anchor="middle" x="3019" y="-175.8" font-family="Times,serif" font-size="14.00">BtnComponent</text>
</g>
<!-- BtnComponent&#45;&gt;SharedModule -->
<g id="edge22" class="edge">
<title>BtnComponent&#45;&gt;SharedModule</title>
<path fill="none" stroke="black" d="M3019,-161.8C3019,-137.64 3019,-98 3019,-98 3019,-98 1286.33,-98 1286.33,-98"/>
<polygon fill="black" stroke="black" points="1286.33,-94.5 1276.33,-98 1286.33,-101.5 1286.33,-94.5"/>
</g>
<!-- IconCloseComponent -->
<g id="node25" class="node">
<title>IconCloseComponent</title>
<polygon fill="#ffffb3" stroke="black" points="2950.09,-198 2811.91,-198 2811.91,-162 2950.09,-162 2950.09,-198"/>
<text text-anchor="middle" x="2881" y="-175.8" font-family="Times,serif" font-size="14.00">IconCloseComponent</text>
</g>
<!-- IconCloseComponent&#45;&gt;SharedModule -->
<g id="edge23" class="edge">
<title>IconCloseComponent&#45;&gt;SharedModule</title>
<path fill="none" stroke="black" d="M2881,-161.91C2881,-138.87 2881,-102 2881,-102 2881,-102 1286.5,-102 1286.5,-102"/>
<polygon fill="black" stroke="black" points="1286.5,-98.5 1276.5,-102 1286.5,-105.5 1286.5,-98.5"/>
</g>
<!-- IconNavComponent -->
<g id="node26" class="node">
<title>IconNavComponent</title>
<polygon fill="#ffffb3" stroke="black" points="3305.53,-198 3176.47,-198 3176.47,-162 3305.53,-162 3305.53,-198"/>
<text text-anchor="middle" x="3241" y="-175.8" font-family="Times,serif" font-size="14.00">IconNavComponent</text>
</g>
<!-- IconNavComponent&#45;&gt;SharedModule -->
<g id="edge24" class="edge">
<title>IconNavComponent&#45;&gt;SharedModule</title>
<path fill="none" stroke="black" d="M3241,-161.79C3241,-135.49 3241,-90 3241,-90 3241,-90 1286.28,-90 1286.28,-90"/>
<polygon fill="black" stroke="black" points="1286.28,-86.5 1276.28,-90 1286.28,-93.5 1286.28,-86.5"/>
</g>
<!-- TotalPipe -->
<g id="node27" class="node">
<title>TotalPipe</title>
<polygon fill="#ffffb3" stroke="black" points="3158.44,-198 3087.56,-198 3087.56,-162 3158.44,-162 3158.44,-198"/>
<text text-anchor="middle" x="3123" y="-175.8" font-family="Times,serif" font-size="14.00">TotalPipe</text>
</g>
<!-- TotalPipe&#45;&gt;SharedModule -->
<g id="edge25" class="edge">
<title>TotalPipe&#45;&gt;SharedModule</title>
<path fill="none" stroke="black" d="M3123,-161.76C3123,-136.52 3123,-94 3123,-94 3123,-94 1286.25,-94 1286.25,-94"/>
<polygon fill="black" stroke="black" points="1286.25,-90.5 1276.25,-94 1286.25,-97.5 1286.25,-90.5"/>
</g>
</g>
</svg>
